<svg width="100" height="100" fill="none" xmlns="http://www.w3.org/2000/svg"><path fill-rule="evenodd" clip-rule="evenodd" d="M19.09 22.562a2.99 2.99 0 0 1 1.204-2.397L35.298 9h28.736l15.129 10.88a3.744 3.744 0 0 1 1.558 3.039v.598c0 .43.142.833.369 1.198.566.908 1.613 1.543 2.647 1.266l.259-.07c7.475-2 14.869 3.825 14.475 11.684-.617 12.282-9.188 22.801-21.202 26.017-.195.052-.39.102-.586.15a32.523 32.523 0 0 1-9.94 9.656c.285.3.548.618.789.954A8.886 8.886 0 0 1 65.921 92H33.338a8.886 8.886 0 0 1-.902-17.727c.163-.222.337-.436.52-.642a32.526 32.526 0 0 1-10.308-9.903l-.352-.092C10.293 60.415 1.707 49.9 1.019 37.638c-.44-7.85 6.924-13.76 14.455-11.74 1.165.313 2.34-.399 3.004-1.406l.07-.103c.321-.469.542-1.01.542-1.578v-.249Zm8.662-.468-2.662 1.981V27.4l-.039-.02a1.19 1.19 0 0 0-1.13.02 1.201 1.201 0 0 0-.617 1.05v5.762l-9.385-2.517c-3.608-.968-7.12 1.862-6.91 5.607.014.238.03.474.052.71.767 8.691 6.591 16.213 14.883 19.227a23.053 23.053 0 0 0 4.49 1.138 26.46 26.46 0 0 0 14.108 12.276c.023.01.047.018.072.027a26.138 26.138 0 0 0 4.43 1.193l.068.012c.792.445 1.243.935 1.478 1.403.122.243.185.48.208.703v.361a2.156 2.156 0 0 1-.03.272 2.49 2.49 0 0 1-.22.667c-.252.506-.716 1.018-1.504 1.362h-5.45l-.067.001a2.888 2.888 0 0 0-2.737 3.574h-3.452a2.884 2.884 0 0 0-2.886 2.886A2.886 2.886 0 0 0 33.338 86h32.583a2.886 2.886 0 1 0 0-5.772h-2.816a2.878 2.878 0 0 0 0-1.376 2.888 2.888 0 0 0-2.804-2.199h-5.729c-.92-.327-1.471-.863-1.774-1.398a2.445 2.445 0 0 1-.251-.631v-.571a1.733 1.733 0 0 1 .036-.164l.002-.009c.04-.15.1-.305.186-.462.28-.514.825-1.052 1.801-1.524.083-.04.169-.08.258-.119a26.223 26.223 0 0 0 3.983-1.122 26.461 26.461 0 0 0 14.105-12.27 23.051 23.051 0 0 0 4.396-1.056c8.466-2.937 14.404-10.542 15.12-19.349.018-.227.033-.455.044-.683.188-3.744-3.34-6.547-6.93-5.586l-9.389 2.512v-5.705a1.2 1.2 0 0 0-.098-.48 1.211 1.211 0 0 0-1.34-.7v-3.26L62.1 15H37.284l-9.533 7.094Zm48.298 23.81a26.47 26.47 0 0 1-.658 5.88 16.865 16.865 0 0 0 6.616-4.219 16.664 16.664 0 0 0 2.47-3.288 16.28 16.28 0 0 0 2.11-6.776l-10.538 2.82v5.583Zm-52.746-5.62-10.4-2.79.013.143c.23 2.372.976 4.632 2.14 6.647a16.869 16.869 0 0 0 2.279 3.074 16.984 16.984 0 0 0 6.612 4.368 26.472 26.472 0 0 1-.645-5.822v-5.62Z" fill="#fff"/><path d="M37.286 15 25.09 24.075v13.046h49.63V24.075L62.101 15H37.286Z" fill="url(#a)"/><path opacity=".3" d="M37.285 15 25.09 24.075v13.046h49.63V24.075L62.1 15H37.285Z" fill="#1453A3"/><path fill-rule="evenodd" clip-rule="evenodd" d="M23.304 28.449v5.763l-9.384-2.518c-3.609-.968-7.12 1.862-6.91 5.607.541 9.647 7.31 17.982 16.84 20.539.859.23 1.721.408 2.583.536 3.761 6.995 10.587 12.096 18.68 13.508 1.203.677 1.619 1.456 1.685 2.106v.36c-.031.696-.446 1.731-1.754 2.303h-5.45a2.886 2.886 0 0 0-2.804 3.574h-3.452a2.886 2.886 0 1 0 0 5.773h32.583a2.886 2.886 0 0 0 0-5.773h-2.816a2.886 2.886 0 0 0-2.804-3.574h-5.728c-1.29-.46-1.856-1.327-2.026-2.03v-.571c.126-.724.7-1.583 2.281-2.277 7.834-1.551 14.42-6.571 18.09-13.393.935-.13 1.87-.317 2.8-.566 9.535-2.552 16.276-10.88 16.76-20.522.188-3.744-3.34-6.547-6.93-5.586l-9.389 2.512v-5.705a1.2 1.2 0 0 0-1.778-1.053l-11.22 6.153-12.64-4.558a1.201 1.201 0 0 0-.82.002l-12.448 4.556-12.201-6.236a1.201 1.201 0 0 0-1.748 1.07Zm52.088 23.335c.43-1.89.658-3.858.658-5.88v-5.583l10.537-2.82c-.525 6.454-4.89 12.096-11.195 14.283Zm-52.088-11.5v5.62c0 2 .222 3.95.644 5.822-6.181-2.248-10.48-7.84-11.045-14.232l10.4 2.79Z" fill="url(#b)"/><path d="M56.97 54c3.867 0 6.757-2.884 6.757-6.98 0-4.22-2.971-7.02-6.797-7.02-2.483 0-4.517 1.17-7.244 4.054C47 41.212 44.883 40 42.523 40c-3.907 0-6.796 2.884-6.796 7.02 0 4.138 2.89 6.98 6.715 6.98 2.441 0 4.761-1.212 7.285-3.928C52.209 52.705 54.447 54 56.97 54Zm-.203-3.887c-1.302 0-2.4-.835-4.436-3.092 2.116-2.424 3.256-3.134 4.436-3.134 1.913 0 2.971 1.42 2.971 3.05 0 1.714-1.058 3.176-2.97 3.176Zm-14.081 0c-1.872 0-2.93-1.42-2.93-3.176 0-1.671 1.017-3.05 2.93-3.05 1.261 0 2.401.835 4.395 3.134-2.035 2.298-3.174 3.092-4.395 3.092Z" fill="#fff"/><path opacity=".3" d="m28.054 24.274 8.532-6.338a.9.9 0 0 1 1.438.749l-.25 8.783a.9.9 0 0 1-1.156.838l-8.282-2.444a.901.901 0 0 1-.282-1.588Z" fill="#fff"/><path opacity=".3" fill-rule="evenodd" clip-rule="evenodd" d="M75.874 45.905v-7.577c-2.167 19.597-35.518 33.996-51.677 15.035 2.822 9.593 10.952 16.913 20.991 18.565 1.144.666 1.544 1.426 1.61 2.062v.182h-.001v.178c-.031.696-.446 1.73-1.754 2.302h-5.45a2.887 2.887 0 0 0-2.77 3.7H63.07a2.888 2.888 0 0 0-2.771-3.7h-5.728c-1.29-.459-1.856-1.326-2.026-2.03v-.57c.13-.748.737-1.64 2.44-2.344 11.933-2.524 20.888-13.118 20.888-25.803Z" fill="#1453A3"/><defs><linearGradient id="a" x1="76.827" y1="37.352" x2="50.355" y2="-9.243" gradientUnits="userSpaceOnUse"><stop offset=".052" stop-color="#FC55FF"/><stop offset=".443" stop-color="#268AFF"/><stop offset=".891" stop-color="#26F663"/></linearGradient><linearGradient id="b" x1="56.479" y1="87.075" x2="27.017" y2="21.233" gradientUnits="userSpaceOnUse"><stop offset=".052" stop-color="#FC55FF"/><stop offset=".443" stop-color="#268AFF"/><stop offset=".891" stop-color="#26F663"/></linearGradient></defs></svg>