<svg width="100" height="100" viewBox="0 0 100 100" fill="none" xmlns="http://www.w3.org/2000/svg"><path fill-rule="evenodd" clip-rule="evenodd" d="M75.6656 44.169V40.8051C75.7145 41.3592 75.7394 41.9202 75.7394 42.4871C75.7394 43.0539 75.7145 43.6149 75.6656 44.169ZM57.8295 23.621H55.867C56.192 23.6043 56.5192 23.5959 56.8483 23.5959C57.1774 23.5959 57.5046 23.6043 57.8295 23.621ZM81.6656 69.6745C89.0278 62.9499 93.6597 53.2581 93.6597 42.4866C93.6597 22.1563 77.1786 5.67529 56.8483 5.67529C46.1005 5.67529 36.4274 10.2869 29.7046 17.621H22.2393C13.1309 17.621 5.74707 25.0048 5.74707 34.1132V76.8498C5.74707 85.9582 13.1309 93.342 22.2393 93.342H65.1734C74.2818 93.342 81.6656 85.9581 81.6656 76.8498V69.6745ZM87.6597 42.4866C87.6597 52.4178 82.9611 61.2515 75.6656 66.8862V76.8498C75.6656 82.6444 70.9681 87.342 65.1734 87.342H22.2393C16.4446 87.342 11.7471 82.6444 11.7471 76.8498V34.1132C11.7471 28.3185 16.4446 23.621 22.2393 23.621H32.4861C38.1224 16.3531 46.939 11.6753 56.8483 11.6753C73.8649 11.6753 87.6597 25.47 87.6597 42.4866Z" fill="white"/><path fill-rule="evenodd" clip-rule="evenodd" d="M11.7471 34.1133C11.7471 28.3186 16.4447 23.6211 22.2393 23.6211H65.1734C70.9681 23.6211 75.6656 28.3186 75.6656 34.1133V76.8499C75.6656 82.6446 70.9681 87.3421 65.1734 87.3421H22.2393C16.4447 87.3421 11.7471 82.6446 11.7471 76.8499V34.1133Z" fill="#C8DEFF"/><path d="M73.5242 18.6929L81.9531 27.1217L42.7409 66.3338L34.312 57.905L73.5242 18.6929Z" fill="url(#paint0_linear_2305_45269)"/><path fill-rule="evenodd" clip-rule="evenodd" d="M26.037 42.4866C26.037 59.5032 39.8317 73.2979 56.8483 73.2979C73.865 73.2979 87.6597 59.5032 87.6597 42.4866C87.6597 25.47 73.865 11.6753 56.8483 11.6753C39.8317 11.6753 26.037 25.47 26.037 42.4866ZM75.7395 42.4871C75.7395 52.9204 67.2816 61.3782 56.8483 61.3782C46.415 61.3782 37.9572 52.9204 37.9572 42.4871C37.9572 32.0538 46.415 23.5959 56.8483 23.5959C67.2816 23.5959 75.7395 32.0538 75.7395 42.4871Z" fill="url(#paint1_linear_2305_45269)"/><defs><linearGradient id="paint0_linear_2305_45269" x1="71.397" y1="66.1871" x2="37.5902" y2="11.6752" gradientUnits="userSpaceOnUse"><stop stop-color="#FC55FF"/><stop offset="0.421875" stop-color="#268AFF"/><stop offset="1" stop-color="#26F663"/></linearGradient><linearGradient id="paint1_linear_2305_45269" x1="71.397" y1="66.1871" x2="37.5902" y2="11.6752" gradientUnits="userSpaceOnUse"><stop stop-color="#FC55FF"/><stop offset="0.421875" stop-color="#268AFF"/><stop offset="1" stop-color="#26F663"/></linearGradient></defs></svg>