<svg width="100" height="100" viewBox="0 0 100 100" fill="none" xmlns="http://www.w3.org/2000/svg"><path d="M13.5592 40.6405C13.5592 47.5771 17.0751 53.7107 22.4594 57.4305L45.4226 77.4656C48.1506 79.8458 52.2263 79.8141 54.9169 77.3917L78.011 56.6004C82.7574 52.8338 85.7908 47.0835 85.7908 40.6405C85.7908 29.2945 76.3841 20.0967 64.7803 20.0967C58.8509 20.0967 53.4951 22.4984 49.675 26.3611C45.8549 22.4984 40.4991 20.0967 34.5697 20.0967C22.9659 20.0967 13.5592 29.2945 13.5592 40.6405Z" fill="url(#paint0_linear_2305_45070)"/><path fill-rule="evenodd" clip-rule="evenodd" d="M18.9669 61.8906C12.3029 57.1605 7.90247 49.4258 7.90247 40.6406C7.90247 26.0513 19.9623 14.4399 34.5698 14.4399C40.165 14.4399 45.3742 16.1378 49.6751 19.0461C53.976 16.1378 59.1852 14.4399 64.7804 14.4399C79.3879 14.4399 91.4477 26.0513 91.4477 40.6406C91.4477 48.8431 87.6086 56.1368 81.6731 60.9152L58.702 81.5959C53.8848 85.9327 46.5878 85.9895 41.7037 81.7282L18.9669 61.8906ZM22.4595 57.4306C17.0752 53.7108 13.5593 47.5772 13.5593 40.6406C13.5593 29.2946 22.966 20.0968 34.5698 20.0968C40.3304 20.0968 45.5496 22.3637 49.3451 26.0349C49.4564 26.1425 49.5664 26.2512 49.6751 26.3612C49.7838 26.2513 49.8937 26.1426 50.0049 26.035C53.8004 22.3637 59.0197 20.0968 64.7804 20.0968C76.3842 20.0968 85.7909 29.2946 85.7909 40.6406C85.7909 47.0836 82.7576 52.8339 78.0111 56.6005L54.917 77.3918C52.2264 79.8141 48.1507 79.8459 45.4227 77.4657L22.4595 57.4306Z" fill="white"/><path fill-rule="evenodd" clip-rule="evenodd" d="M45.6894 52.7343C42.0472 56.3765 36.142 56.3765 32.4998 52.7343C28.8576 49.0921 28.8576 43.187 32.4998 39.5448C36.142 35.9026 42.0472 35.9026 45.6894 39.5448L52.2842 46.1395L45.6894 52.7343ZM35.7127 49.5215C37.5805 51.3893 40.6087 51.3893 42.4765 49.5215L45.8585 46.1395L42.4766 42.7576C40.6088 40.8898 37.5805 40.8898 35.7127 42.7576C33.8449 44.6254 33.8449 47.6537 35.7127 49.5215Z" fill="#FEFEFE"/><path fill-rule="evenodd" clip-rule="evenodd" d="M52.8251 52.7343C56.4673 56.3765 62.3725 56.3765 66.0147 52.7343C69.6569 49.0921 69.6569 43.187 66.0147 39.5448C62.3725 35.9026 56.4673 35.9026 52.8251 39.5448L46.2303 46.1395L52.8251 52.7343ZM62.8019 49.5215C60.9341 51.3893 57.9058 51.3893 56.038 49.5215L52.656 46.1395L56.038 42.7576C57.9058 40.8898 60.9341 40.8898 62.8019 42.7576C64.6697 44.6254 64.6697 47.6537 62.8019 49.5215Z" fill="#FEFEFE"/><defs><linearGradient id="paint0_linear_2305_45070" x1="37.918" y1="20.0967" x2="56.8395" y2="84.6059" gradientUnits="userSpaceOnUse"><stop stop-color="#26F663"/><stop offset="0.601579" stop-color="#268AFF"/><stop offset="0.940172" stop-color="#FC55FF"/></linearGradient></defs></svg>