<svg width="55" height="55" viewBox="5 5 45 45" fill="none" xmlns="http://www.w3.org/2000/svg"><g clip-path="url(#clip0_5716_152980)"><path fill-rule="evenodd" clip-rule="evenodd" d="M42.6982 27.9009L42.5728 27.6837C43.411 27.7395 44.2743 27.5558 45.0564 27.1042C47.1573 25.8913 47.8771 23.2049 46.6641 21.104L42.2717 13.496C41.0587 11.3952 38.3723 10.6753 36.2715 11.8883C35.4893 12.3398 34.8986 12.9956 34.5278 13.7493L34.4013 13.5303C33.1884 11.4294 30.502 10.7096 28.4011 11.9226C26.3002 13.1355 25.5804 15.8219 26.7934 17.9228L29.9664 23.4186L23.2037 27.323L20.0307 21.8273C18.8177 19.7264 16.1314 19.0066 14.0305 20.2195C11.9296 21.4325 11.2098 24.1189 12.4227 26.2197L12.5484 26.4374C11.7104 26.3818 10.8473 26.5655 10.0654 27.017C7.96449 28.2299 7.24468 30.9163 8.45762 33.0172L12.8501 40.6252C14.063 42.726 16.7494 43.4459 18.8503 42.2329C19.6322 41.7815 20.2229 41.1259 20.5937 40.3723L20.7196 40.5903C21.9325 42.6912 24.6189 43.411 26.7198 42.1981C28.8207 40.9851 29.5405 38.2988 28.3276 36.1979L24.6678 29.859L31.4305 25.9546L35.0902 32.2934C36.3032 34.3943 38.9896 35.1141 41.0904 33.9011C43.1913 32.6882 43.9111 30.0018 42.6982 27.9009Z" fill="url(#paint0_linear_5716_152980)"/><path fill-rule="evenodd" clip-rule="evenodd" d="M37.0024 11.5506C38.9601 10.8556 41.1955 11.6325 42.2715 13.4961L46.664 21.1041C47.7399 22.9678 47.295 25.2922 45.7142 26.6401C45.513 26.8116 45.2934 26.9673 45.0562 27.1043C44.4267 27.4677 43.7447 27.6576 43.0654 27.6889C42.9007 27.6964 42.7362 27.6947 42.5726 27.6838L42.698 27.901C43.2501 28.8572 43.4018 29.9348 43.205 30.9395C42.9696 32.1421 42.2349 33.2404 41.0903 33.9012C38.9894 35.1141 36.303 34.3943 35.0901 32.2934L31.4303 25.9546L24.6676 29.8591L28.3274 36.198C29.5403 38.2988 28.8205 40.9852 26.7196 42.1982C25.5747 42.8592 24.2559 42.9462 23.0965 42.5485C22.1284 42.2164 21.2713 41.5464 20.7194 40.5904L20.5936 40.3724C20.5208 40.5201 20.4397 40.6641 20.3503 40.8035C19.9837 41.3752 19.4788 41.87 18.8501 42.233C18.6128 42.37 18.3679 42.4824 18.1186 42.5709C16.161 43.2656 13.9258 42.4888 12.8499 40.6252L8.45744 33.0173C7.38154 31.1537 7.82634 28.8295 9.40682 27.4816C9.60812 27.3099 9.82784 27.1541 10.0652 27.0171C10.6941 26.654 11.3754 26.4641 12.054 26.4326C12.2192 26.4249 12.3842 26.4266 12.5482 26.4375L12.4225 26.2198C11.8705 25.2637 11.7188 24.1864 11.9154 23.1819C12.1508 21.979 12.8855 20.8805 14.0303 20.2196C16.1312 19.0066 18.8176 19.7265 20.0305 21.8273L23.2035 27.3231L29.9662 23.4187L26.7932 17.9228C25.5802 15.822 26.3001 13.1356 28.4009 11.9226C29.5462 11.2614 30.8654 11.1746 32.0251 11.5727C32.9928 11.9048 33.8494 12.5747 34.4011 13.5304L34.5276 13.7494C34.6007 13.6009 34.6822 13.4562 34.7722 13.3162C35.1386 12.7452 35.6432 12.251 36.2713 11.8884C36.5085 11.7514 36.7532 11.6391 37.0024 11.5506ZM34.5051 9.153C34.5511 9.1251 34.5976 9.09763 34.6444 9.07059C38.3015 6.95916 42.9778 8.21218 45.0893 11.8693L49.4817 19.4772C51.5931 23.1343 50.3401 27.8106 46.683 29.922C46.6358 29.9493 46.5885 29.976 46.5409 30.0021C46.5717 32.6754 45.1973 35.287 42.7171 36.719C39.06 38.8304 34.3837 37.5774 32.2723 33.9203L30.2394 30.3992L29.1122 31.05L31.1451 34.5711C33.2566 38.2282 32.0035 42.9045 28.3465 45.0159C25.8659 46.4481 22.9163 46.3323 20.6164 44.9683C20.5703 44.9962 20.5238 45.0237 20.477 45.0507C16.8199 47.1622 12.1436 45.9092 10.0321 42.2521L5.63968 34.6441C3.52826 30.987 4.78127 26.3107 8.43836 24.1993C8.48527 24.1722 8.53236 24.1457 8.57963 24.1197C8.54847 21.446 9.92297 18.8339 12.4035 17.4018C16.0605 15.2904 20.7368 16.5434 22.8483 20.2005L24.3944 22.8785L25.5216 22.2277L23.9754 19.5497C21.864 15.8926 23.117 11.2163 26.7741 9.10486C29.255 7.6725 32.205 7.78849 34.5051 9.153Z" fill="white"/><rect opacity="0.3" x="13.7305" y="23.4314" width="3.84734" height="7.43888" rx="1.92367" transform="rotate(-30 13.7305 23.4314)" fill="white"/><rect opacity="0.3" x="28.1565" y="14.9387" width="3.84734" height="7.43888" rx="1.92367" transform="rotate(-30 28.1565 14.9387)" fill="white"/><rect opacity="0.3" x="8.90552" y="29.5803" width="3.84734" height="6.89889" rx="1.92367" transform="rotate(-30 8.90552 29.5803)" fill="white"/><rect opacity="0.3" x="36.0195" y="14.3965" width="3.84734" height="6.89889" rx="1.92367" transform="rotate(-30 36.0195 14.3965)" fill="white"/></g><defs><linearGradient id="paint0_linear_5716_152980" x1="22.0564" y1="15.1842" x2="30.7632" y2="41.986" gradientUnits="userSpaceOnUse"><stop stop-color="#26F663"/><stop offset="0.520833" stop-color="#268AFF"/><stop offset="1" stop-color="#FC55FF"/></linearGradient><clipPath id="clip0_5716_152980"><rect width="46.636" height="44.9007" fill="white" transform="translate(4.29614 4.60962)"/></clipPath></defs></svg>