<svg width="780" height="780" xmlns="http://www.w3.org/2000/svg" t="1728543727347" class="icon" version="1.1" p-id="2935">
 <g>
  <title>Layer 1</title>
  <path d="m145.58667,297.25333l0,123.30667l12.16,7.46667l22.4,-43.94667l0,-252.37333l-17.28,114.56l0,38.82666l-17.28,12.16z" fill="#C6BE99" p-id="2936" id="svg_1"/>
  <path d="m159.88,435.49333l-19.62667,-12.16l0,-129.06666l17.28,-12.16l0,-35.84l17.28,-115.41334l10.66667,0.85334l-0.64,254.93333l-24.96,48.85333zm-8.96,-17.92l4.69333,2.98667l19.2,-37.54667l0,-180.05333l-6.61333,44.16l0,40.74667l-17.28,12.16l0,117.54666z" p-id="2937" id="svg_2"/>
  <path d="m640.52,297.25333l0,123.30667l-12.16,7.46667l-22.61333,-43.94667l0,-252.37333l17.28,114.56l0,38.82666l17.49333,12.16z" fill="#C6BE99" p-id="2938" id="svg_3"/>
  <path d="m626.22667,435.49333l-25.6,-51.41333l0,-252.37333l10.66666,-0.85334l17.28,114.56l0,36.69334l17.28,12.16l0,129.06666l-19.62666,12.16zm-14.93334,-52.69333l19.2,37.54667l4.69334,-2.98667l0,-117.54667l-17.28,-12.16l0,-41.38666l-6.61334,-43.73334l0,180.26667z" p-id="2939" id="svg_4"/>
  <path d="m602.54667,127.01333c-16.85334,-22.61333 -95.57334,-118.18666 -209.49334,-116.26666c-113.92,-2.13334 -192.64,93.65333 -209.49333,116.26666c-2.34667,2.98667 -3.41333,6.61334 -3.41333,10.45334l0,33.70666l101.12,-50.13333c4.90666,-2.56 10.88,0.64 11.94666,5.97333l29.86667,167.46667l139.94667,0l29.86666,-167.46667c1.06667,-5.54666 7.04,-8.53333 11.94667,-5.97333l101.12,50.13333l0,-33.70666a19.66933,19.66933 0 0 0 -3.41333,-10.45334z" fill="#B71D1D" p-id="2940" id="svg_5"/>
  <path d="m467.29333,299.81333l-148.69333,0l-30.50667,-171.94666a2.624,2.624 0 0 0 -1.70666,-2.13334a3.02933,3.02933 0 0 0 -2.77334,0l-108.8,53.97334l0,-42.24c0,-4.90667 1.49334,-9.81334 4.48,-13.65334c14.93334,-19.84 94.72,-118.4 210.13334,-118.4l7.25333,0c115.2,0 194.98667,98.34667 209.92,118.4c2.98667,3.84 4.48,8.53334 4.48,13.65334l0,42.24l-109.01333,-53.97334c-1.06667,-0.64 -2.13334,-0.21333 -2.77334,0c-0.42666,0.21334 -1.28,0.85334 -1.70666,2.13334l-30.29334,171.94666zm-139.73333,-10.66666l130.77333,0l29.01334,-163.2c0.85333,-4.26667 3.41333,-7.89334 7.25333,-9.81334c3.84,-1.92 8.32,-1.92 12.16,0l93.44,46.29334l0,-24.96c0,-2.77334 -0.85333,-5.12 -2.34667,-7.25334c-14.50666,-19.41333 -92.8,-116.48 -205.01333,-114.13333c-112.42667,-2.13333 -190.72,94.72 -205.22667,114.13333c-1.49333,2.13334 -2.34666,4.48 -2.34666,7.25334l0,25.17333l93.44,-46.29333a13.54667,13.54667 0 0 1 19.41333,9.81333l29.44,162.98667z" p-id="2941" id="svg_6"/>
  <path d="m340.78667,729.68l-35.41334,-12.37333l-80.85333,-232.32l-55.25333,2.77333s8.32,155.73333 80.42666,219.73333s72.32,64 72.32,64l70.82667,0.42667l0.21333,-63.36l-38.18666,-0.42667l-14.08,21.54667z" fill="#B71D1D" p-id="2942" id="svg_7"/>
  <path d="m397.96,777.46667l-78.08,-0.42667l-73.81333,-65.49333c-73.17334,-64.85334 -81.92,-217.17334 -82.34667,-223.57334l-0.21333,-5.33333l64.64,-3.2l81.49333,233.81333l29.01333,10.24l13.44,-20.48l46.29334,0.64l-0.42667,73.81334zm-74.02667,-11.09334l63.36,0.42667l0.21334,-52.69333l-29.86667,-0.42667l-14.72,22.61333l-41.81333,-14.72l-80.42667,-231.04l-45.86667,2.34667c2.34667,27.73333 16,155.52 78.29334,210.77333l70.82666,62.72z" p-id="2943" id="svg_8"/>
  <path d="m561.37333,484.98667l-80.85333,232.32l-35.41333,12.37333l-14.08,-21.54667l-38.18667,0.42667l0.21333,63.36l70.82667,-0.42667l72.32,-64c72.32,-64 80.42667,-219.73333 80.42667,-219.73333l-55.25334,-2.77333z" fill="#B71D1D" p-id="2944" id="svg_9"/>
  <path d="m387.93333,777.46667l-0.42666,-74.02667l46.29333,-0.64l13.44,20.48l29.01333,-10.24l81.28,-233.81333l64.64,3.2l-0.21333,5.33333c-0.42667,6.4 -9.17333,158.72 -82.34667,223.57333l-73.81333,65.49334l-77.86667,0.64zm10.45334,-63.36l0.21333,52.69333l63.36,-0.42667l70.82667,-62.72c62.29333,-55.25333 75.94666,-183.04 78.29333,-210.77333l-45.86667,-2.34667l-80.42666,231.04l-41.81334,14.72l-14.72,-22.61333l-29.86666,0.42667z" p-id="2945" id="svg_10"/>
  <path d="m628.36,428.02667l-21.33333,-41.81334a9.70667,9.70667 0 0 1 -1.06667,-4.26666l0,-205.01334c0,-3.62666 -1.92,-6.82666 -5.12,-8.32l-94.93333,-46.93333a9.25867,9.25867 0 0 0 -13.22667,6.61333l-28.16,158.50667c-0.85333,4.48 -4.69333,7.68 -9.17333,7.68l-124.16,0c-4.48,0 -8.32,-3.2 -9.17334,-7.68l-28.16,-158.50667a9.17333,9.17333 0 0 0 -13.22666,-6.61333l-94.93334,46.93333c-3.2,1.49334 -5.12,4.90667 -5.12,8.32l0,205.01334c0,1.49333 -0.42666,2.98666 -1.06666,4.26666l-21.33334,41.81334l-14.08,-7.46667s9.38667,68.90667 53.33334,94.29333c33.49333,19.2 74.02666,134.82667 91.52,189.01334c5.33333,16.64 21.12,27.52 38.4,26.66666l9.38666,-0.42666c2.98667,-0.21334 5.76,-1.70667 7.46667,-4.26667l8.53333,-13.22667c1.70667,-2.77333 4.69334,-4.26666 7.89334,-4.26666l33.06666,0.42666l33.06667,-0.42666c3.2,0 6.18667,1.49333 7.89333,4.26666l8.53334,13.22667c1.70666,2.56 4.48,4.05333 7.46666,4.26667l9.38667,0.42666c17.28,0.64 33.06667,-10.24 38.4,-26.66666c17.49333,-54.18667 58.02667,-169.81334 91.52,-189.01334c43.94667,-25.17333 53.54667,-94.29333 53.54667,-94.29333l-15.14667,7.46667z" fill="#E8E0B2" p-id="2946" id="svg_11"/>
  <path d="m460.89333,735.86667l-1.92,0l-9.38666,-0.42667a15.14667,15.14667 0 0 1 -11.73334,-6.61333l-8.53333,-13.22667c-0.64,-1.06667 -2.34667,-2.13333 -3.41333,-1.70667l-33.06667,0.42667l-33.06667,-0.42667c-1.49333,0 -2.56,0.64 -3.41333,1.70667l-8.53333,13.22667c-2.56,4.05333 -7.04,6.4 -11.73334,6.61333l-9.38666,0.42667c-20.05334,0.64 -37.76,-11.73334 -43.73334,-30.29334c-33.49333,-103.68 -66.77333,-173.22666 -88.96,-186.02666c-45.65333,-26.24 -55.46666,-95.14667 -55.89333,-98.13334l-1.49333,-10.24l18.56,9.81334l18.98666,-37.12a6.61333,6.61333 0 0 0 0.42667,-1.70667l0,-205.01333c0,-5.54667 3.2,-10.66667 8.10667,-13.22667l94.93333,-47.14667c4.05333,-2.13333 8.96,-2.13333 13.01333,0c4.26667,2.13334 7.04,5.97334 7.89334,10.45334l28.16,158.50666c0.42666,1.92 1.92,3.2 3.84,3.2l124.16,0c1.92,0 3.62666,-1.28 3.84,-3.2l28.16,-158.50666c0.85333,-4.69334 3.62666,-8.53334 7.89333,-10.45334c4.05333,-2.13333 8.96,-2.13333 13.01333,0l94.93334,47.14667c5.12,2.56 8.10666,7.46667 8.10666,13.22667l0,205.01333c0,0.64 0.21334,1.28 0.42667,1.70667l18.98667,37.12l18.98666,-9.81334l-0.85333,10.02667c-0.42667,2.98667 -10.66667,71.89333 -56.32,98.13333c-22.4,12.8 -55.68,82.34667 -88.96,186.02667c-5.97333,18.13333 -23.04,30.50667 -42.02667,30.50667zm-34.77333,-32.85334c4.90667,0 9.6,2.56 12.37333,6.61334l8.53334,13.22666c0.64,1.06667 1.92,1.70667 3.2,1.70667l9.38666,0.42667c15.57334,0.42666 28.58667,-8.74667 33.06667,-23.04c20.48,-63.14667 59.73333,-172.37334 93.86667,-192c31.14666,-17.92 44.37333,-60.16 48.85333,-79.78667l-9.38667,4.90667l-23.89333,-46.72a13.86667,13.86667 0 0 1 -1.70667,-6.61334l0,-205.01333c0,-1.49333 -0.85333,-2.98667 -2.13333,-3.62667l-94.93333,-47.14666c-1.06667,-0.64 -2.34667,-0.64 -3.62667,0c-1.06667,0.64 -1.92,1.70666 -2.13333,2.77333l-28.16,158.50667c-1.28,7.04 -7.25334,12.16 -14.50667,12.16l-124.16,0c-7.04,0 -13.22667,-5.12 -14.50667,-12.16l-28.16,-158.50667a3.62667,3.62667 0 0 0 -2.13333,-2.77333c-1.06667,-0.64 -2.34667,-0.64 -3.62667,0l-94.93333,47.14666c-1.28,0.64 -2.13333,2.13334 -2.13333,3.62667l0,205.01333c0,2.34667 -0.64,4.69334 -1.70667,6.61334l-23.89333,46.72l-9.17334,-4.69334c4.48,19.84 17.49334,61.86667 48.64,79.78667c34.13334,19.62667 73.38667,128.64 93.86667,192c4.48,14.29333 17.70667,23.68 33.06667,23.04l9.38666,-0.42667c1.28,0 2.56,-0.64 3.2,-1.70666l8.53334,-13.22667c2.77333,-4.26667 7.25333,-6.61333 12.16,-6.61333l0.21333,0l33.06667,0.42666l33.49333,-0.64c-0.21333,0 0,0 0,0z" p-id="2947" id="svg_12"/>
  <path d="m570.76,405.2l9.38667,13.86667l-44.37334,23.46666l-58.88,0l-15.36,-14.50666l59.30667,-4.26667l49.92,-18.56z" fill="#FFFFFF" p-id="2948" id="svg_13"/>
  <path d="m537.05333,447.86667l-62.29333,0l-25.81333,-24.32l70.82666,-4.90667l53.33334,-19.84l14.93333,22.4l-50.98667,26.66667zm-58.02666,-10.66667l55.46666,0l37.97334,-20.05333l-3.62667,-5.54667l-47.57333,17.49333l-47.14667,3.41334l4.90667,4.69333z" p-id="2949" id="svg_14"/>
  <path d="m461.53333,428.02667l-137.17333,0l-5.54667,5.33333l74.24,1.92l74.02667,-1.92l-5.54667,-5.33333z" p-id="2950" id="svg_15"/>
  <path d="m393.05333,440.61333l-87.25333,-2.34666l16.64,-15.57334l141.22667,0l16.64,15.57334l-87.25334,2.34666z" p-id="2951" id="svg_16"/>
  <path d="m501,645.84c-8.74667,7.89333 -107.94667,12.58667 -107.94667,12.58667s-99.41333,-4.69334 -107.94666,-12.58667c-8.74667,-7.89333 -13.22667,9.6 -13.22667,9.6l3.84,10.66667l8.10667,-11.09334s60.16,11.09334 109.22666,8.74667c49.28,2.34667 109.22667,-8.74667 109.22667,-8.74667l8.10667,11.09334l3.84,-10.66667s-4.69334,-17.49333 -13.22667,-9.6z" p-id="2952" id="svg_17"/>
  <path d="m273.8,677.41333l-7.68,-21.54666l0.42667,-1.49334c0.85333,-2.98666 3.84,-13.01333 11.30666,-15.14666c2.13334,-0.64 6.18667,-1.06667 10.66667,3.2c5.97333,4.26666 58.02667,8.96 104.53333,11.09333c46.08,-2.13333 97.92,-7.04 104.32,-11.30667c4.48,-4.05333 8.53334,-3.62666 10.66667,-2.98666c7.25333,2.13333 10.45333,12.16 11.30667,15.14666l0.42666,1.49334l-7.68,21.54666l-12.16,-16.42666c-13.44,2.34666 -64,10.24 -107.30666,8.32c-42.66667,2.13333 -93.44,-5.97334 -106.66667,-8.32l-12.16,16.42666zm231.04,-27.94666l3.2,4.26666c-0.85333,-2.34666 -2.13333,-4.26666 -2.98667,-4.48l-0.21333,0.21334zm-224.21333,0.64c-0.85334,0.42666 -1.92,1.92 -2.56,3.62666l2.56,-3.62666z" p-id="2953" id="svg_18"/>
  <path d="m215.13333,405.2l-9.38666,13.86667l44.37333,23.46666l58.88,0l15.36,-14.50666l-59.30667,-4.26667l-49.92,-18.56z" fill="#FFFFFF" p-id="2954" id="svg_19"/>
  <path d="m311.13333,447.86667l-63.36,-0.64l-49.70666,-26.02667l14.93333,-22.4l53.33333,19.84l70.82667,4.90667l-26.02667,24.32zm-59.52,-10.66667l55.46667,0l4.90667,-4.69333l-48.64,-3.62667l-46.08,-17.28l-3.62667,5.54667l37.97333,20.05333z" p-id="2955" id="svg_20"/>
 </g>

</svg>